<svg width="30" height="30" viewBox="0 0 30 30" fill="none" xmlns="http://www.w3.org/2000/svg">
<path d="M2.6052 3.439C2.77694 2.95055 3.31213 2.69378 3.80059 2.86552L4.17734 2.99797C4.94799 3.26888 5.60254 3.49898 6.11764 3.75173C6.66843 4.02198 7.14074 4.35491 7.49596 4.87473C7.84844 5.39053 7.99396 5.95643 8.06113 6.57691C8.09119 6.85466 8.10705 7.16208 8.11541 7.5H21.4131C23.5194 7.5 25.4154 7.5 25.9703 8.22135C26.5253 8.94271 26.3083 10.0296 25.8744 12.2034L25.2496 15.2344C24.8558 17.1455 24.6588 18.101 23.9691 18.663C23.2795 19.225 22.3039 19.225 20.3526 19.225H13.724C10.2379 19.225 8.49479 19.225 7.41179 18.0827C6.32878 16.9404 6.24974 15.727 6.24974 12.05V8.7979C6.24974 7.87296 6.24846 7.25395 6.19701 6.77868C6.14785 6.3245 6.06073 6.09772 5.9479 5.93261C5.83783 5.77153 5.67074 5.621 5.2917 5.43502C4.88815 5.23701 4.33971 5.04257 3.5052 4.74917L3.17869 4.63437C2.69023 4.46265 2.43348 3.92746 2.6052 3.439Z" fill="#888888"/>
<path d="M9.375 22.5C10.4105 22.5 11.25 23.3395 11.25 24.375C11.25 25.4105 10.4105 26.25 9.375 26.25C8.33946 26.25 7.5 25.4105 7.5 24.375C7.5 23.3395 8.33946 22.5 9.375 22.5Z" fill="#888888"/>
<path d="M20.625 22.5001C21.6605 22.5001 22.5 23.3395 22.5 24.3751C22.5 25.4106 21.6605 26.2501 20.625 26.2501C19.5895 26.2501 18.75 25.4106 18.75 24.3751C18.75 23.3395 19.5895 22.5001 20.625 22.5001Z" fill="#888888"/>
</svg>
