<svg width="35" height="35" viewBox="0 0 35 35" fill="none" xmlns="http://www.w3.org/2000/svg">
<path d="M20.7812 22.4219C20.7812 24.5361 19.0673 26.25 16.9531 26.25C14.8389 26.25 13.125 24.5361 13.125 22.4219C13.125 20.3077 14.8389 18.5938 16.9531 18.5938C19.0673 18.5938 20.7812 20.3077 20.7812 22.4219ZM17.5 17.5558V6.01562C17.5 5.71375 17.255 5.46875 16.9531 5.46875C16.6513 5.46875 16.4062 5.71375 16.4062 6.01562V17.5558C16.5878 17.535 16.7661 17.5 16.9531 17.5C17.1402 17.5 17.3184 17.535 17.5 17.5558ZM16.4062 27.288V28.9844C16.4062 29.2862 16.6513 29.5312 16.9531 29.5312C17.255 29.5312 17.5 29.2862 17.5 28.9844V27.288C17.3184 27.3087 17.1402 27.3438 16.9531 27.3438C16.7661 27.3438 16.5878 27.3087 16.4062 27.288ZM26.25 20.7255V28.9844C26.25 29.2862 26.495 29.5312 26.7969 29.5312C27.0987 29.5312 27.3438 29.2862 27.3438 28.9844V20.7255C27.1622 20.7462 26.9839 20.7812 26.7969 20.7812C26.6098 20.7812 26.4316 20.7462 26.25 20.7255ZM27.3438 10.9933V6.01562C27.3438 5.71375 27.0987 5.46875 26.7969 5.46875C26.495 5.46875 26.25 5.71375 26.25 6.01562V10.9933C26.4316 10.9725 26.6098 10.9375 26.7969 10.9375C26.9839 10.9375 27.1622 10.9725 27.3438 10.9933ZM7.65625 7.71203V6.01562C7.65625 5.71375 7.41125 5.46875 7.10938 5.46875C6.8075 5.46875 6.5625 5.71375 6.5625 6.01562V7.71203C6.74406 7.69125 6.92234 7.65625 7.10938 7.65625C7.29641 7.65625 7.47469 7.69125 7.65625 7.71203ZM6.5625 17.4442V28.9844C6.5625 29.2862 6.8075 29.5312 7.10938 29.5312C7.41125 29.5312 7.65625 29.2862 7.65625 28.9844V17.4442C7.47469 17.465 7.29641 17.5 7.10938 17.5C6.92234 17.5 6.74406 17.465 6.5625 17.4442ZM7.10938 8.75C4.99516 8.75 3.28125 10.4639 3.28125 12.5781C3.28125 14.6923 4.99516 16.4062 7.10938 16.4062C9.22359 16.4062 10.9375 14.6923 10.9375 12.5781C10.9375 10.4639 9.22359 8.75 7.10938 8.75ZM26.7969 12.0312C24.6827 12.0312 22.9688 13.7452 22.9688 15.8594C22.9688 17.9736 24.6827 19.6875 26.7969 19.6875C28.9111 19.6875 30.625 17.9736 30.625 15.8594C30.625 13.7452 28.9111 12.0312 26.7969 12.0312Z" fill="#888888"/>
</svg>
