<svg width="30" height="30" viewBox="0 0 30 30" fill="none" xmlns="http://www.w3.org/2000/svg">
<path d="M17.5 12.5V27.5H5C4.33696 27.5 3.70107 27.2366 3.23223 26.7678C2.76339 26.2989 2.5 25.663 2.5 25V12.5H17.5Z" fill="#888888"/>
<path d="M27.5 12.5V25C27.5 25.663 27.2366 26.2989 26.7678 26.7678C26.2989 27.2366 25.663 27.5 25 27.5H20V12.5H27.5Z" fill="#888888"/>
<path d="M27.5 5V10H2.5V5C2.5 4.33696 2.76339 3.70107 3.23223 3.23223C3.70107 2.76339 4.33696 2.5 5 2.5H25C25.663 2.5 26.2989 2.76339 26.7678 3.23223C27.2366 3.70107 27.5 4.33696 27.5 5Z" fill="#888888"/>
</svg>
