<svg width="30" height="30" viewBox="0 0 30 30" fill="none" xmlns="http://www.w3.org/2000/svg">
<path fill-rule="evenodd" clip-rule="evenodd" d="M15 27.5C21.9035 27.5 27.5 21.9035 27.5 15C27.5 8.09644 21.9035 2.5 15 2.5C8.09644 2.5 2.5 8.09644 2.5 15C2.5 21.9035 8.09644 27.5 15 27.5ZM15.9375 7.5C15.9375 6.98224 15.5177 6.5625 15 6.5625C14.4822 6.5625 14.0625 6.98224 14.0625 7.5V7.89591C12.0245 8.26084 10.3125 9.79201 10.3125 11.875C10.3125 14.2715 12.5785 15.9375 15 15.9375C16.7206 15.9375 17.8125 17.0696 17.8125 18.125C17.8125 19.1804 16.7206 20.3125 15 20.3125C13.2794 20.3125 12.1875 19.1804 12.1875 18.125C12.1875 17.6072 11.7678 17.1875 11.25 17.1875C10.7322 17.1875 10.3125 17.6072 10.3125 18.125C10.3125 20.208 12.0245 21.7391 14.0625 22.1041V22.5C14.0625 23.0177 14.4822 23.4375 15 23.4375C15.5177 23.4375 15.9375 23.0177 15.9375 22.5V22.1041C17.9755 21.7391 19.6875 20.208 19.6875 18.125C19.6875 15.7285 17.4215 14.0625 15 14.0625C13.2794 14.0625 12.1875 12.9304 12.1875 11.875C12.1875 10.8197 13.2794 9.6875 15 9.6875C16.7206 9.6875 17.8125 10.8197 17.8125 11.875C17.8125 12.3928 18.2322 12.8125 18.75 12.8125C19.2677 12.8125 19.6875 12.3928 19.6875 11.875C19.6875 9.79201 17.9755 8.26084 15.9375 7.89591V7.5Z" fill="#888888"/>
</svg>
