<svg width="60" height="60" viewBox="0 0 60 60" fill="none" xmlns="http://www.w3.org/2000/svg">
<path d="M40 32.5L57.41 42.655L49.9775 44.78L55.29 53.9825L50.96 56.4825L45.6475 47.2825L40.09 52.6575L40 32.5ZM35 15H40V20H52.5C53.163 20 53.7989 20.2634 54.2678 20.7322C54.7366 21.2011 55 21.837 55 22.5V32.5H50V25H25V50H35V55H22.5C21.837 55 21.2011 54.7366 20.7322 54.2678C20.2634 53.7989 20 53.163 20 52.5V40H15V35H20V22.5C20 21.837 20.2634 21.2011 20.7322 20.7322C21.2011 20.2634 21.837 20 22.5 20H35V15ZM10 35V40H5V35H10ZM10 25V30H5V25H10ZM10 15V20H5V15H10ZM10 5V10H5V5H10ZM20 5V10H15V5H20ZM30 5V10H25V5H30ZM40 5V10H35V5H40Z" fill="#888888"/>
</svg>
