<svg width="62" height="50" viewBox="0 0 62 50" fill="none" xmlns="http://www.w3.org/2000/svg">
<path d="M29.4913 38.0479C28.6303 37.665 27.7716 37.2774 26.9106 36.8968C26.6228 36.7684 26.3985 36.6119 26.3351 36.25C26.0405 34.5549 24.8487 33.9642 23.376 33.6723C21.8511 33.3711 21.7378 33.0443 22.5943 31.6854C23.999 29.4556 23.632 27.6928 21.4478 26.2685C20.503 25.6521 19.5196 25.6731 18.5499 26.2148C18.1216 26.4553 17.7251 26.7588 17.3127 27.0297C16.6217 27.4826 16.1799 27.2445 15.951 26.4857C15.874 26.2288 15.8491 25.9533 15.7924 25.6871C15.3438 23.5928 14.6414 22.96 12.5841 22.7802C12.4028 22.7639 12.2261 22.6985 12.0471 22.6565C12.063 18.295 12.0471 13.9335 12.0584 9.57194C12.0584 9.12365 11.927 8.638 12.2759 8.24341C18.1194 10.4172 23.9673 12.5769 29.7428 14.9398C29.8357 15.3204 29.8311 15.7056 29.8311 16.0955C29.8311 22.9927 29.8311 29.8922 29.8243 36.7894C29.8243 37.226 30.0056 37.742 29.4935 38.0502L29.4913 38.0479Z" fill="#0B1E33"/>
<path d="M31.9383 14.9316C35.9895 13.3626 40.0384 11.7913 44.0919 10.2246C45.7142 9.59882 47.3501 9.0081 48.9633 8.35668C49.5705 8.11152 49.7314 8.24694 49.7767 8.90771C50.0169 12.452 50.0305 12.487 46.5503 12.438C44.8985 12.4147 43.573 12.8279 42.8729 14.516C42.5308 15.3449 41.8193 14.9316 41.2846 14.948C38.867 15.0274 37.0272 16.5147 36.6081 18.8542C36.5197 19.3445 36.5265 19.8582 36.5265 20.3625C36.522 25.2564 36.5061 30.1502 36.5401 35.0418C36.5469 35.8216 36.3294 36.2349 35.6134 36.5151C34.4556 36.9657 33.3386 37.5261 32.2034 38.0397C31.7004 37.8319 31.757 37.372 31.757 36.9493C31.7525 30.9231 31.7095 24.8991 31.7888 18.8729C31.8069 17.563 31.7367 16.2345 31.9383 14.9246V14.9316Z" fill="#0B1E33"/>
<path d="M13.2842 6.65355C16.4132 5.43709 19.463 4.24864 22.5127 3.06253C24.8736 2.14493 27.2368 1.232 29.5955 0.31207C30.205 0.0739146 30.8371 -0.131553 31.4693 0.104268C33.837 0.991514 36.1889 1.91612 38.8036 2.92478C37.7863 3.34739 37.0091 3.68127 36.2252 3.99648C31.5577 5.87137 26.8902 7.73926 22.2249 9.61648C21.799 9.78926 21.4002 9.9527 20.9244 9.76825C18.4932 8.82496 16.0552 7.90036 13.6195 6.96408C13.5266 6.92906 13.4609 6.82166 13.2842 6.65588V6.65355Z" fill="#0B1E33"/>
<path d="M48.6348 6.74493C44.5133 8.31863 40.7408 9.75924 36.9683 11.2022C36.1549 11.5127 35.2871 11.7182 34.5394 12.1478C32.0289 13.5977 29.5864 13.4857 27.0782 12.1291C26.1198 11.6108 25.0481 11.3189 24.0421 10.929C24.0307 10.4807 24.3751 10.5157 24.5881 10.4293C29.8492 8.30695 35.1149 6.19391 40.3806 4.08086C40.7295 3.94077 41.0603 3.79134 41.4636 3.95011C43.7452 4.85136 46.0337 5.73161 48.6348 6.7426V6.74493Z" fill="#0B1E33"/>
<path d="M43.8517 15.188C43.8948 14.735 44.1485 14.4595 44.5496 14.3124C48.0117 14.2143 51.4738 14.2353 54.9359 14.2937C55.7856 14.9101 56.1866 16.7336 55.747 18.0622C55.3936 19.1315 54.5326 19.1689 53.6285 19.1619C50.9232 19.1455 48.2201 19.1549 45.5148 19.1549C44.7037 19.1549 44.0171 18.9634 43.8336 17.9945C43.854 17.0582 43.8608 16.1219 43.8517 15.1856V15.188Z" fill="#0B1E33"/>
<path d="M58.3074 16.5885C57.6231 16.6002 57.4214 16.808 57.3965 17.5178C57.3217 19.6635 56.1685 20.7726 54.084 20.7819C51.331 20.7936 48.5759 20.7843 45.823 20.7819C43.3011 20.7796 42.3971 19.9367 42.1026 17.3123C42.0686 17.0111 42.1071 16.7286 41.6902 16.6095C40.12 16.1612 38.3799 17.0602 37.7477 18.6899V18.6946C37.7228 28.4169 37.7387 38.1369 37.7387 47.857C38.3029 49.3746 39.1571 49.9677 40.8586 49.9677C46.7429 49.9723 52.6293 49.9723 58.5135 49.9677C60.913 49.9653 61.9983 48.8189 61.9983 46.3019C62.0006 37.6349 62.0006 28.9656 61.9983 20.2986C61.9983 17.6952 60.8201 16.5465 58.3074 16.5885ZM50.6536 25.2322H58.1012C58.6631 25.2322 59.114 25.4493 59.1026 26.0704C59.0913 26.6915 58.6268 26.8736 58.0695 26.8666C56.8278 26.8526 55.5862 26.8619 54.3445 26.8642C53.1414 26.8642 51.936 26.8549 50.7329 26.8689C50.146 26.8759 49.6159 26.7498 49.6204 26.04C49.6249 25.4166 50.1053 25.2322 50.6536 25.2322ZM40.8315 26.3599C41.2076 25.935 41.6267 26.068 42.0368 26.3832C42.5376 26.7662 42.9522 27.6954 43.4688 27.497C43.9809 27.3008 44.2505 26.4253 44.6153 25.8416C45.0231 25.1901 45.406 24.5224 45.8252 23.8779C46.0631 23.5114 46.4143 23.4063 46.8154 23.5884C47.1258 23.7308 47.2391 24.0087 47.2277 24.4593C47.1371 24.6391 47.017 24.9216 46.8629 25.1831C46.0971 26.4743 45.3313 27.7655 44.5473 29.0427C43.9174 30.07 43.5957 30.105 42.7052 29.2668C42.1207 28.7181 41.5542 28.1507 40.9833 27.5857C40.6185 27.2215 40.4508 26.7895 40.8315 26.3599ZM47.2391 41.1489C47.1711 41.31 47.0918 41.5692 46.9581 41.7957C46.1379 43.1896 45.3018 44.5765 44.4771 45.9681C44.0103 46.7549 43.4824 46.8296 42.8367 46.1759C42.2453 45.5758 41.6381 44.9944 41.0286 44.4154C40.6162 44.0231 40.4191 43.5725 40.8518 43.1055C41.2348 42.6922 41.6539 42.8557 42.0595 43.1779C42.5466 43.5655 42.925 44.4691 43.4983 44.2613C43.9763 44.0885 44.2256 43.2386 44.57 42.6829C44.9756 42.0291 45.3653 41.3637 45.7799 40.7146C46.0042 40.3644 46.3214 40.1683 46.7451 40.3294C47.0601 40.4484 47.2073 40.7076 47.2391 41.1489ZM46.9944 33.3575C46.1424 34.7747 45.2973 36.1943 44.4499 37.6139C44.0171 38.3377 43.4937 38.4311 42.8842 37.8381C42.2294 37.1983 41.5746 36.5562 40.9244 35.9118C40.6593 35.648 40.5505 35.3234 40.6864 34.9592C40.8065 34.6346 41.0648 34.4922 41.4999 34.4969C42.0663 34.5669 42.4039 35.1366 42.8253 35.5546C43.283 36.0099 43.5617 36.0776 43.9106 35.4262C44.4386 34.4432 45.0481 33.5092 45.6213 32.5543C45.9204 32.057 46.292 31.625 46.8924 32.0289C47.4181 32.3815 47.2776 32.8835 46.9944 33.3575ZM58.4999 44.3243C56.7621 44.6559 55.0107 44.427 53.266 44.4504C52.2374 44.4644 51.1883 44.6582 50.1687 44.315C49.8175 44.0114 49.4437 43.7079 49.668 43.1499C49.8877 42.6082 50.3681 42.6339 50.8235 42.6339H57.9471C58.4116 42.6339 58.8761 42.6479 59.0709 43.1989C59.2771 43.7803 58.8534 44.0371 58.4999 44.3243ZM59.0687 35.0082C58.867 35.5663 58.3957 35.5522 57.9358 35.5522H50.8077C50.3545 35.5522 49.8719 35.5919 49.6657 35.0292C49.455 34.4619 49.8424 34.1747 50.1982 33.8781C51.2178 33.5699 52.2623 33.7427 53.2909 33.7544C55.031 33.7778 56.778 33.5629 58.5113 33.8711C58.8647 34.163 59.2748 34.4292 59.0664 35.0082H59.0687Z" fill="#0B1E33"/>
<path d="M23.3895 35.3678C22.9794 35.3117 22.5828 35.1623 22.1727 35.1063C21.459 35.0082 21.1259 34.5599 20.7634 33.9412C19.9138 32.4889 20.7861 31.5083 21.4862 30.4739C22.1116 29.547 21.8578 28.8605 21.1441 28.125C20.4349 27.3942 19.7574 27.2752 18.9463 27.8729C18.6699 28.076 18.3776 28.2535 18.0921 28.4426C16.4992 29.4979 14.8316 28.7998 14.417 26.8992C14.3173 26.4439 14.2199 25.9886 14.1247 25.5333C13.9774 24.8235 13.5537 24.5013 12.8536 24.4476C11.186 24.3192 10.7827 24.5644 10.5153 26.4673C10.3341 27.7585 9.75177 28.4589 8.58263 28.8652C7.45201 29.2574 6.78814 28.4729 6.05177 27.9476C5.10921 27.2728 4.38869 27.3148 3.57981 28.1857C2.84117 28.9796 2.81851 29.6731 3.39402 30.558C3.97858 31.4546 4.73988 32.2367 4.1961 33.605C3.69083 34.8751 2.78679 35.0946 1.73547 35.258C0.700013 35.4168 -0.0454263 35.767 0.00215493 37.0769C0.0542677 38.5338 0.160759 38.737 1.64031 39.0802C1.89634 39.1409 2.15464 39.1946 2.41294 39.2506C4.18024 39.6359 4.88943 41.387 3.9378 42.9701C3.56621 43.5888 3.02696 44.1212 2.94539 44.7446H2.94313C2.92273 45.2185 3.0179 45.4987 3.20143 45.7649C4.1168 47.1004 4.80106 47.2709 6.12201 46.3346C7.09176 45.6482 7.94822 45.1578 9.21252 45.7906C10.3522 46.3603 10.3477 47.3479 10.5153 48.3006C10.7125 49.419 11.1679 49.9957 12.3801 50.0003C13.5945 50.005 14.0907 49.4306 14.2335 48.3076C14.272 48.0017 14.3422 47.6982 14.4102 47.3946C14.7976 45.6692 16.5038 44.9617 17.972 45.919C18.3844 46.1898 18.7899 46.4747 19.2091 46.7362C19.8027 47.1074 20.3375 47.0117 20.8631 46.5494C22.0232 45.5291 22.1252 45.0061 21.2778 43.6799C20.6705 42.7296 20.129 41.9007 20.6819 40.5979C21.2596 39.2343 22.3699 39.3137 23.3827 39.0942C24.4317 38.8654 24.7988 38.298 24.7988 37.224C24.801 36.1523 24.4566 35.5172 23.3895 35.3678ZM12.4276 41.6205C10.0305 41.6369 8.09096 39.6592 8.0887 37.2006C8.0887 34.763 10.0644 32.7387 12.4276 32.7574C14.7523 32.7784 16.6646 34.735 16.7145 37.1423C16.7643 39.5752 14.8226 41.6042 12.4276 41.6205Z" fill="#0B1E33"/>
</svg>
