<svg width="30" height="30" viewBox="0 0 30 30" fill="none" xmlns="http://www.w3.org/2000/svg">
<path d="M2.5 7.5C2.5 6.83696 2.76339 6.20107 3.23223 5.73223C3.70107 5.26339 4.33696 5 5 5H16.25C16.913 5 17.5489 5.26339 18.0178 5.73223C18.4866 6.20107 18.75 6.83696 18.75 7.5V10C18.75 10.3315 18.6183 10.6495 18.3839 10.8839C18.1495 11.1183 17.8315 11.25 17.5 11.25C17.1685 11.25 16.8505 11.1183 16.6161 10.8839C16.3817 10.6495 16.25 10.3315 16.25 10V7.5H5V22.5H16.25V20C16.25 19.6685 16.3817 19.3505 16.6161 19.1161C16.8505 18.8817 17.1685 18.75 17.5 18.75C17.8315 18.75 18.1495 18.8817 18.3839 19.1161C18.6183 19.3505 18.75 19.6685 18.75 20V22.5C18.75 23.163 18.4866 23.7989 18.0178 24.2678C17.5489 24.7366 16.913 25 16.25 25H5C4.33696 25 3.70107 24.7366 3.23223 24.2678C2.76339 23.7989 2.5 23.163 2.5 22.5V7.5ZM21.6162 10.3663C21.8507 10.1319 22.1685 10.0003 22.5 10.0003C22.8315 10.0003 23.1493 10.1319 23.3838 10.3663L27.1338 14.1163C27.3681 14.3507 27.4997 14.6685 27.4997 15C27.4997 15.3315 27.3681 15.6493 27.1338 15.8837L23.3838 19.6337C23.148 19.8614 22.8322 19.9874 22.5045 19.9846C22.1768 19.9817 21.8632 19.8503 21.6315 19.6185C21.3997 19.3868 21.2683 19.0732 21.2654 18.7455C21.2626 18.4178 21.3886 18.102 21.6162 17.8663L23.2325 16.25H11.25C10.9185 16.25 10.6005 16.1183 10.3661 15.8839C10.1317 15.6495 10 15.3315 10 15C10 14.6685 10.1317 14.3505 10.3661 14.1161C10.6005 13.8817 10.9185 13.75 11.25 13.75H23.2325L21.6162 12.1337C21.3819 11.8993 21.2503 11.5815 21.2503 11.25C21.2503 10.9185 21.3819 10.6007 21.6162 10.3663Z" fill="#888888"/>
</svg>
